Coordinates
version=1
nRows=14
nColumns=40
inDegrees=yes

Units are S.I. units (second, meters, Newtons, ...)
Angles are in degrees.

endheader
time	pelvis_tilt	pelvis_list	pelvis_rotation	pelvis_tx	pelvis_ty	pelvis_tz	hip_flexion_r	hip_adduction_r	hip_rotation_r	knee_angle_r	knee_angle_r_beta	ankle_angle_r	subtalar_angle_r	mtp_angle_r	hip_flexion_l	hip_adduction_l	hip_rotation_l	knee_angle_l	knee_angle_l_beta	ankle_angle_l	subtalar_angle_l	mtp_angle_l	lumbar_extension	lumbar_bending	lumbar_rotation	arm_flex_r	arm_add_r	arm_rot_r	elbow_flex_r	pro_sup_r	wrist_flex_r	wrist_dev_r	arm_flex_l	arm_add_l	arm_rot_l	elbow_flex_l	pro_sup_l	wrist_flex_l	wrist_dev_l
     49.35928571	     -6.90197641	     -6.90590658	      0.53420933	      0.91164159	      0.93141882	      0.50638845	     11.59957119	      6.13432880	    -18.87817947	     14.02659725	     14.02659725	     10.43057052	      9.29984436	     -1.07723947	     41.06316289	    -13.73219517	      2.49020189	     67.66738500	     67.66738500	      5.91310510	    -16.14284997	      6.15864327	    -12.10361692	      6.73603586	      5.38611475	     33.06070909	    -15.19991654	      2.56852301	     65.13318010	     45.01413859	      0.00000000	      0.00000000	     -3.46681571	     -6.55595298	     -2.92762509	     26.63898034	     47.01390176	      0.00000000	      0.00000000
     49.37107143	     -7.07781032	     -6.94798697	      0.40700370	      0.91055840	      0.93136127	      0.50661111	     11.16174263	      6.24445258	    -18.72678875	     13.79769611	     13.79769611	     10.65496028	      9.52230725	     -1.15130327	     41.94780056	    -13.79458825	      2.20063015	     65.45796402	     65.45796402	      5.95174206	    -16.09845771	      6.53675290	    -11.99775785	      6.80749392	      5.88785686	     35.17299527	    -15.39570826	      2.51792274	     66.27882569	     44.98870525	      0.00000000	      0.00000000	     -4.75664955	     -6.75973798	     -2.91368672	     25.94689284	     46.98345694	      0.00000000	      0.00000000
     49.38285714	     -7.08440932	     -6.99045493	      0.36637872	      0.90966577	      0.93150329	      0.50656700	     10.37265236	      6.34954749	    -18.85084916	     13.28348498	     13.28348498	     10.80578333	     10.22327289	     -1.31585685	     42.47746055	    -13.74899278	      2.00488704	     62.90946579	     62.90946579	      6.04496900	    -16.12944608	      7.54645385	    -12.15916387	      6.90184634	      5.76468070	     36.98052186	    -15.85638977	      4.47467395	     69.65415520	     44.83792363	      0.00000000	      0.00000000	     -6.13829582	     -7.05208987	     -2.20763266	     24.97513419	     46.78303074	      0.00000000	      0.00000000
     49.39464286	     -7.34545207	     -7.06903498	      0.25066992	      0.90870228	      0.93100241	      0.50648948	     10.00802856	      6.48037248	    -18.72914650	     13.04499886	     13.04499886	     11.06476282	     10.39214055	     -1.37951387	     43.13029503	    -13.73269389	      1.84922267	     60.11515285	     60.11515285	      6.15950426	    -15.97851684	      7.92897940	    -11.90435990	      7.04072087	      6.30226684	     38.92834197	    -15.94910447	      4.23488066	     70.59417207	     44.82521756	      0.00000000	      0.00000000	     -7.37027147	     -7.27610319	     -2.19255566	     24.50749043	     46.75479511	      0.00000000	      0.00000000
     49.40642857	     -7.38131558	     -7.09701517	      0.23762026	      0.90800368	      0.93084894	      0.50612192	      9.10492809	      6.62156355	    -18.72666553	     12.25821908	     12.25821908	     11.26591169	     10.92475808	     -1.26898538	     43.31344739	    -13.54079890	      1.79364911	     56.95769509	     56.95769509	      6.18642963	    -16.03986009	      8.49402484	    -12.02930582	      7.12962952	      5.78331518	     40.86100787	    -15.17057946	      4.53379528	     73.27092802	     44.74311198	      0.00000000	      0.00000000	     -9.10411165	     -7.50638622	     -1.82633707	     24.26647621	     46.63441372	      0.00000000	      0.00000000
     49.41821429	     -7.63464984	     -7.08560552	      0.12214816	      0.90723362	      0.93011838	      0.50571320	      8.62847337	      6.66366391	    -18.58777392	     11.86081837	     11.86081837	     11.60774087	     11.21112149	     -1.31217039	     43.56150418	    -13.39930497	      1.60966739	     53.58416567	     53.58416567	      6.32287451	    -15.72108155	      8.95732143	    -11.77953545	      7.13703157	      6.07745014	     42.67971159	    -15.18961706	      4.47924383	     74.59967717	     44.71199066	      0.00000000	      0.00000000	    -10.31544072	     -7.69979982	     -1.71825226	     24.05784830	     46.58410766	      0.00000000	      0.00000000
     49.43000000	     -7.63936002	     -7.09557825	      0.08778690	      0.90684975	      0.92963709	      0.50511835	      7.67448501	      6.77139337	    -18.58854614	     11.10854745	     11.10854745	     11.90927478	     11.75688199	     -1.19585279	     43.30864204	    -13.16629772	      1.59074148	     49.90488717	     49.90488717	      6.47073780	    -15.48486069	      9.47650693	    -11.86045905	      7.19570319	      5.79072242	     44.11801551	    -14.64343301	      4.87687265	     77.16928396	     44.62707962	      0.00000000	      0.00000000	    -11.94282145	     -7.92895504	     -1.39628986	     24.17551768	     46.47437007	      0.00000000	      0.00000000
     49.44178571	     -7.79410284	     -7.15893232	      0.04544616	      0.90654086	      0.92860549	      0.50438165	      6.92382113	      6.91395121	    -18.58969745	     10.45300026	     10.45300026	     12.30053881	     12.24257525	     -1.09757083	     43.10208486	    -12.98906704	      1.59938745	     46.12109736	     46.12109736	      6.69559437	    -14.98048031	      9.94322770	    -11.71721117	      7.32530770	      5.76407739	     45.47004789	    -14.54010507	      5.18300775	     79.60495450	     44.55198212	      0.00000000	      0.00000000	    -13.46024972	     -8.12346231	     -0.99740799	     24.61712800	     46.34992818	      0.00000000	      0.00000000
     49.45357143	     -7.93471361	     -7.20677416	     -0.02328171	      0.90642394	      0.92735684	      0.50354879	      6.15354488	      7.03956747	    -18.53301372	      9.81655847	      9.81655847	     12.71490129	     12.64390426	     -0.99272432	     42.69438555	    -12.81095922	      1.57516865	     42.21103083	     42.21103083	      6.95337110	    -14.34326828	     10.48262333	    -11.60648538	      7.40818363	      5.78917121	     46.68575402	    -14.41275448	      5.41072281	     81.88686568	     44.48485644	      0.00000000	      0.00000000	    -14.92945326	     -8.32671894	     -0.56920964	     25.05193195	     46.22533891	      0.00000000	      0.00000000
     49.46535714	     -8.07631059	     -7.31712909	     -0.06579248	      0.90654815	      0.92577263	      0.50260771	      5.36923163	      7.22198340	    -18.50593085	      9.20991495	      9.20991495	     13.34210094	     13.09941506	     -0.48240386	     42.21492366	    -12.70638769	      1.53506762	     38.36434748	     38.36434748	      7.19607787	    -13.50595946	     11.18840418	    -11.49615712	      7.54519055	      6.32928055	     47.26301065	    -15.20805332	      5.68901235	     85.92790555	     44.40156181	      0.00000000	      0.00000000	    -16.85169057	     -9.04551265	      1.85576315	     27.70192721	     45.71055155	      0.00000000	      0.00000000
     49.47714286	     -8.11988714	     -7.44897242	     -0.09267651	      0.90705827	      0.92408625	      0.50155559	      4.41904207	      7.45448632	    -18.35552202	      8.51470122	      8.51470122	     13.83803807	     13.30815940	     -0.46575455	     41.49572405	    -12.61851472	      1.44103199	     34.58387880	     34.58387880	      7.30742943	    -12.70294120	     12.05493477	    -11.29138605	      7.77831022	      6.04064836	     48.45140778	    -14.54216116	      5.68414486	     87.57012983	     44.37238086	      0.00000000	      0.00000000	    -18.14591738	     -9.12242832	      2.73498232	     27.56207224	     45.54315959	      0.00000000	      0.00000000
     49.48892857	     -8.15787666	     -7.47513753	     -0.20157436	      0.90778791	      0.92214158	      0.50043371	      3.54067318	      7.52768605	    -18.06784936	      8.02001395	      8.02001395	     14.38974643	     13.43632923	     -0.53047412	     40.66210533	    -12.51474322	      1.06578068	     31.03699267	     31.03699267	      7.45527937	    -11.82149818	     12.90183258	    -11.14446534	      7.80006195	      5.99523355	     49.33040021	    -14.20573873	      5.74936364	     89.11124513	     44.33679127	      0.00000000	      0.00000000	    -19.33225749	     -9.24728216	      3.20330786	     27.59154310	     45.44559542	      0.00000000	      0.00000000
     49.50071429	     -8.19191931	     -7.54426136	     -0.28531107	      0.90876294	      0.92000574	      0.49917015	      2.66288349	      7.62774886	    -17.77330458	      7.56010729	      7.56010729	     14.98435076	     13.52141806	     -0.62093221	     39.85147571	    -12.45279515	      0.60021676	     27.90552969	     27.90552969	      7.36896599	    -10.92830759	     13.77446963	    -10.93904188	      7.90490892	      5.90668701	     50.09840187	    -13.88059372	      5.82719682	     90.72933796	     44.29585390	      0.00000000	      0.00000000	    -20.41275840	     -9.29243726	      3.55400866	     27.67122312	     45.37024749	      0.00000000	      0.00000000
     49.51250000	     -8.19536257	     -7.71410026	     -0.34637464	      0.90998012	      0.91775869	      0.49787971	      1.70617405	      7.85458183	    -17.34282106	      7.03764472	      7.03764472	     15.55373758	     13.37378613	     -0.57612685	     39.14444257	    -12.49664933	      0.07919137	     25.41810830	     25.41810830	      7.21577261	    -10.11044880	     14.70974098	    -10.80358389	      8.10115787	      5.99902718	     50.38228333	    -13.90650090	      5.85797597	     93.60428745	     44.23886024	      0.00000000	      0.00000000	    -21.60594248	     -9.52730774	      4.50229888	     28.60596483	     45.20306738	      0.00000000	      0.00000000
